<svg width="53" height="52" viewBox="0 0 53 52" fill="none" xmlns="http://www.w3.org/2000/svg">
<path d="M52.9776 26.1592C52.9776 11.7115 41.3375 -4.57764e-05 26.9808 -4.57764e-05C12.6176 0.00320513 0.977539 11.7115 0.977539 26.1625C0.977539 39.2161 10.4859 50.0372 22.9123 52V33.721H16.3156V26.1625H22.9188V20.3944C22.9188 13.84 26.8021 10.2199 32.7391 10.2199C35.5857 10.2199 38.5591 10.7301 38.5591 10.7301V17.1643H35.2803C32.0534 17.1643 31.0461 19.1823 31.0461 21.2523V26.1592H38.2537L37.1033 33.7178H31.0428V51.9967C43.4693 50.034 52.9776 39.2128 52.9776 26.1592Z" fill="white"/>
</svg>
