<svg width="52" height="51" viewBox="0 0 52 51" fill="none" xmlns="http://www.w3.org/2000/svg">
<path d="M26.4775 0C19.5575 0 18.6873 0.031875 15.9684 0.153C13.2494 0.2805 11.3975 0.707625 9.77504 1.33875C8.07322 1.97886 6.53173 2.98295 5.25835 4.28081C3.96128 5.55484 2.95732 7.09614 2.31629 8.7975C1.68516 10.4167 1.25485 12.2719 1.13054 14.9812C1.00941 17.7066 0.977539 18.5736 0.977539 25.5032C0.977539 32.4264 1.00941 33.2934 1.13054 36.0124C1.25804 38.7281 1.68516 40.5801 2.31629 42.2025C2.96973 43.8791 3.83991 45.3008 5.25835 46.7192C6.6736 48.1376 8.09523 49.011 9.77185 49.6613C11.3975 50.2924 13.2462 50.7227 15.962 50.847C18.6841 50.9681 19.5511 51 26.4775 51C33.404 51 34.2678 50.9681 36.9899 50.847C39.7025 50.7195 41.5608 50.2924 43.1832 49.6612C44.884 49.0208 46.4243 48.0167 47.6967 46.7192C49.1152 45.3008 49.9854 43.8791 50.6388 42.2025C51.2667 40.5801 51.697 38.7281 51.8245 36.0124C51.9457 33.2934 51.9775 32.4264 51.9775 25.5C51.9775 18.5736 51.9457 17.7066 51.8245 14.9844C51.697 12.2719 51.2667 10.4168 50.6388 8.7975C49.9979 7.09609 48.9939 5.55478 47.6967 4.28081C46.4237 2.98246 44.8821 1.97831 43.18 1.33875C41.5544 0.707625 39.6993 0.277312 36.9867 0.153C34.2646 0.031875 33.4008 0 26.4712 0H26.4807H26.4775ZM24.1921 4.59638H26.4807C33.2892 4.59638 34.0957 4.61869 36.7827 4.743C39.269 4.85456 40.6205 5.27212 41.5194 5.61956C42.7083 6.08175 43.5594 6.63638 44.4519 7.52887C45.3444 8.42137 45.8958 9.26925 46.358 10.4614C46.7086 11.3571 47.123 12.7086 47.2345 15.1948C47.3589 17.8819 47.3844 18.6883 47.3844 25.4936C47.3844 32.2989 47.3589 33.1086 47.2345 35.7956C47.123 38.2819 46.7054 39.6302 46.358 40.5291C45.9492 41.6363 45.2966 42.6374 44.4487 43.4584C43.5562 44.3509 42.7083 44.9023 41.5162 45.3645C40.6237 45.7151 39.2722 46.1295 36.7827 46.2442C34.0957 46.3654 33.2892 46.3941 26.4807 46.3941C19.6722 46.3941 18.8626 46.3654 16.1755 46.2442C13.6893 46.1295 12.341 45.7151 11.4421 45.3645C10.3344 44.9562 9.33238 44.3049 8.5096 43.4584C7.66093 42.6361 7.00741 41.634 6.5971 40.5259C6.24967 39.6302 5.8321 38.2787 5.72054 35.7924C5.59942 33.1054 5.57392 32.2989 5.57392 25.4873C5.57392 18.6788 5.59942 17.8755 5.72054 15.1884C5.83529 12.7022 6.24967 11.3507 6.60029 10.4518C7.06248 9.26288 7.6171 8.41181 8.5096 7.51931C9.4021 6.62681 10.25 6.07538 11.4421 5.61319C12.341 5.26256 13.6893 4.84819 16.1755 4.73344C18.5279 4.62506 19.4395 4.59319 24.1921 4.59L24.1921 4.59638ZM40.0914 8.82937C38.4014 8.82938 37.0314 10.1994 37.0314 11.8894C37.0314 13.5794 38.4014 14.9494 40.0914 14.9494C41.7813 14.9494 43.1514 13.5794 43.1514 11.8894C43.1514 10.1994 41.7813 8.82937 40.0914 8.82937ZM26.4807 12.4057C19.2472 12.4042 13.3833 18.2681 13.3833 25.5016C13.3833 32.7351 19.2472 38.599 26.4807 38.599C33.7142 38.5998 39.5782 32.7359 39.5782 25.5024C39.5782 18.2689 33.7142 12.4057 26.4807 12.4057ZM26.4807 16.9989C31.1757 16.9989 34.9818 20.805 34.9818 25.5C34.9818 30.195 31.1757 34.0011 26.4807 34.0011C21.7857 34.0011 17.9797 30.195 17.9797 25.5C17.9797 20.805 21.7857 16.9989 26.4807 16.9989Z" fill="white"/>
</svg>
