<svg width="52" height="51" viewBox="0 0 52 51" fill="none" xmlns="http://www.w3.org/2000/svg">
<path d="M46.115 51H45.7816C7.23735 48.7835 1.76465 16.2612 0.999655 6.33577C0.875159 4.77718 1.37606 3.23312 2.39179 2.04442C3.40752 0.855719 4.85456 0.120123 6.4135 1.8521e-06H17.2216C18.8293 -0.00155454 20.2752 0.977942 20.87 2.47154L23.8516 9.8077C24.4384 11.2654 24.0988 12.9326 22.9885 14.0446L18.8104 18.2619C20.1473 25.8589 26.0855 31.8128 33.6789 33.1696L37.9354 28.9523C39.0642 27.8542 40.7403 27.5375 42.192 28.1481L49.587 31.11C51.0575 31.7234 52.0109 33.1652 51.9997 34.7585V45.1154C51.9997 48.3654 49.365 51 46.115 51ZM6.88427 3.92308C5.80094 3.92308 4.92273 4.80129 4.92273 5.88462V6.04154C5.82504 17.6539 11.6116 45.1154 45.9973 47.0769C46.5178 47.1091 47.0297 46.9327 47.4198 46.5867C47.81 46.2407 48.0463 45.7536 48.0766 45.2331V34.7585L40.6816 31.7965L35.052 37.3869L34.1104 37.2692C17.045 35.1312 14.7304 18.0658 14.7304 17.8892L14.6127 16.9477L20.1835 11.3181L17.2412 3.92308H6.88427Z" fill="white"/>
</svg>
