<svg width="52" height="52" viewBox="0 0 52 52" fill="none" xmlns="http://www.w3.org/2000/svg">
<path d="M20.8337 0.166656C9.41533 0.166656 0.166992 9.41499 0.166992 20.8333C0.166992 32.2517 9.41533 41.5 20.8337 41.5C25.1349 41.5 29.1391 40.1825 32.4457 37.935L45.2203 50.6967C46.7316 52.2079 49.1857 52.2079 50.697 50.6967C52.2082 49.1854 52.2082 46.7312 50.697 45.22L37.9224 32.4454C40.1828 29.1387 41.5003 25.1346 41.5003 20.8333C41.5003 9.41499 32.252 0.166656 20.8337 0.166656ZM7.91699 20.8333C7.91699 13.7033 13.7037 7.91666 20.8337 7.91666C27.9637 7.91666 33.7503 13.7033 33.7503 20.8333C33.7503 27.9633 27.9637 33.75 20.8337 33.75C13.7037 33.75 7.91699 27.9633 7.91699 20.8333Z" fill="#BF3C3C"/>
</svg>
